<svg width="1728" height="1117" viewBox="0 0 1728 1117" fill="none" xmlns="http://www.w3.org/2000/svg">
<rect y="-36" width="82.2857" height="82.2857" stroke="white" stroke-opacity="0.02" stroke-width="1.64571"/>
<rect x="82.2856" y="-36" width="82.2857" height="82.2857" stroke="white" stroke-opacity="0.02" stroke-width="1.64571"/>
<rect x="164.571" y="-36" width="82.2857" height="82.2857" stroke="white" stroke-opacity="0.02" stroke-width="1.64571"/>
<rect x="246.857" y="-36" width="82.2857" height="82.2857" stroke="white" stroke-opacity="0.02" stroke-width="1.64571"/>
<rect x="329.143" y="-36" width="82.2857" height="82.2857" stroke="white" stroke-opacity="0.02" stroke-width="1.64571"/>
<rect x="411.429" y="-36" width="82.2857" height="82.2857" stroke="white" stroke-opacity="0.02" stroke-width="1.64571"/>
<rect x="493.714" y="-36" width="82.2857" height="82.2857" stroke="white" stroke-opacity="0.02" stroke-width="1.64571"/>
<rect x="576" y="-36" width="82.2857" height="82.2857" stroke="white" stroke-opacity="0.02" stroke-width="1.64571"/>
<rect x="658.286" y="-36" width="82.2857" height="82.2857" stroke="white" stroke-opacity="0.02" stroke-width="1.64571"/>
<rect x="740.571" y="-36" width="82.2857" height="82.2857" stroke="white" stroke-opacity="0.02" stroke-width="1.64571"/>
<rect x="822.857" y="-36" width="82.2857" height="82.2857" stroke="white" stroke-opacity="0.02" stroke-width="1.64571"/>
<rect x="905.143" y="-36" width="82.2857" height="82.2857" stroke="white" stroke-opacity="0.02" stroke-width="1.64571"/>
<rect x="987.429" y="-36" width="82.2857" height="82.2857" stroke="white" stroke-opacity="0.02" stroke-width="1.64571"/>
<rect x="1069.71" y="-36" width="82.2857" height="82.2857" stroke="white" stroke-opacity="0.02" stroke-width="1.64571"/>
<rect x="1152" y="-36" width="82.2857" height="82.2857" stroke="white" stroke-opacity="0.02" stroke-width="1.64571"/>
<rect x="1234.29" y="-36" width="82.2857" height="82.2857" stroke="white" stroke-opacity="0.02" stroke-width="1.64571"/>
<rect x="1316.57" y="-36" width="82.2857" height="82.2857" stroke="white" stroke-opacity="0.02" stroke-width="1.64571"/>
<rect x="1398.86" y="-36" width="82.2857" height="82.2857" stroke="white" stroke-opacity="0.02" stroke-width="1.64571"/>
<rect x="1481.14" y="-36" width="82.2857" height="82.2857" stroke="white" stroke-opacity="0.02" stroke-width="1.64571"/>
<rect x="1563.43" y="-36" width="82.2857" height="82.2857" stroke="white" stroke-opacity="0.02" stroke-width="1.64571"/>
<rect x="1645.71" y="-36" width="82.2857" height="82.2857" stroke="white" stroke-opacity="0.02" stroke-width="1.64571"/>
<rect y="46.2856" width="82.2857" height="82.2857" stroke="white" stroke-opacity="0.02" stroke-width="1.64571"/>
<rect x="82.2856" y="46.2856" width="82.2857" height="82.2857" stroke="white" stroke-opacity="0.02" stroke-width="1.64571"/>
<rect x="164.571" y="46.2856" width="82.2857" height="82.2857" fill="white" fill-opacity="0.04" stroke="white" stroke-opacity="0.02" stroke-width="1.64571"/>
<rect x="246.857" y="46.2856" width="82.2857" height="82.2857" stroke="white" stroke-opacity="0.02" stroke-width="1.64571"/>
<rect x="329.143" y="46.2856" width="82.2857" height="82.2857" stroke="white" stroke-opacity="0.02" stroke-width="1.64571"/>
<rect x="411.429" y="46.2856" width="82.2857" height="82.2857" stroke="white" stroke-opacity="0.02" stroke-width="1.64571"/>
<rect x="493.714" y="46.2856" width="82.2857" height="82.2857" stroke="white" stroke-opacity="0.02" stroke-width="1.64571"/>
<rect x="576" y="46.2856" width="82.2857" height="82.2857" stroke="white" stroke-opacity="0.02" stroke-width="1.64571"/>
<rect x="658.286" y="46.2856" width="82.2857" height="82.2857" stroke="white" stroke-opacity="0.02" stroke-width="1.64571"/>
<rect x="740.571" y="46.2856" width="82.2857" height="82.2857" fill="white" fill-opacity="0.04" stroke="white" stroke-opacity="0.02" stroke-width="1.64571"/>
<rect x="822.857" y="46.2856" width="82.2857" height="82.2857" stroke="white" stroke-opacity="0.02" stroke-width="1.64571"/>
<rect x="905.143" y="46.2856" width="82.2857" height="82.2857" stroke="white" stroke-opacity="0.02" stroke-width="1.64571"/>
<rect x="987.429" y="46.2856" width="82.2857" height="82.2857" stroke="white" stroke-opacity="0.02" stroke-width="1.64571"/>
<rect x="1069.71" y="46.2856" width="82.2857" height="82.2857" stroke="white" stroke-opacity="0.02" stroke-width="1.64571"/>
<rect x="1152" y="46.2856" width="82.2857" height="82.2857" stroke="white" stroke-opacity="0.02" stroke-width="1.64571"/>
<rect x="1234.29" y="46.2856" width="82.2857" height="82.2857" stroke="white" stroke-opacity="0.02" stroke-width="1.64571"/>
<rect x="1316.57" y="46.2856" width="82.2857" height="82.2857" stroke="white" stroke-opacity="0.02" stroke-width="1.64571"/>
<rect x="1398.86" y="46.2856" width="82.2857" height="82.2857" stroke="white" stroke-opacity="0.02" stroke-width="1.64571"/>
<rect x="1481.14" y="46.2856" width="82.2857" height="82.2857" stroke="white" stroke-opacity="0.02" stroke-width="1.64571"/>
<rect x="1563.43" y="46.2856" width="82.2857" height="82.2857" stroke="white" stroke-opacity="0.02" stroke-width="1.64571"/>
<rect x="1645.71" y="46.2856" width="82.2857" height="82.2857" stroke="white" stroke-opacity="0.02" stroke-width="1.64571"/>
<rect y="128.571" width="82.2857" height="82.2857" stroke="white" stroke-opacity="0.02" stroke-width="1.64571"/>
<rect x="82.2856" y="128.571" width="82.2857" height="82.2857" stroke="white" stroke-opacity="0.02" stroke-width="1.64571"/>
<rect x="164.571" y="128.571" width="82.2857" height="82.2857" stroke="white" stroke-opacity="0.02" stroke-width="1.64571"/>
<rect x="246.857" y="128.571" width="82.2857" height="82.2857" stroke="white" stroke-opacity="0.02" stroke-width="1.64571"/>
<rect x="329.143" y="128.571" width="82.2857" height="82.2857" stroke="white" stroke-opacity="0.02" stroke-width="1.64571"/>
<rect x="411.429" y="128.571" width="82.2857" height="82.2857" stroke="white" stroke-opacity="0.02" stroke-width="1.64571"/>
<rect x="493.714" y="128.571" width="82.2857" height="82.2857" stroke="white" stroke-opacity="0.02" stroke-width="1.64571"/>
<rect x="576" y="128.571" width="82.2857" height="82.2857" stroke="white" stroke-opacity="0.02" stroke-width="1.64571"/>
<rect x="658.286" y="128.571" width="82.2857" height="82.2857" stroke="white" stroke-opacity="0.02" stroke-width="1.64571"/>
<rect x="740.571" y="128.571" width="82.2857" height="82.2857" stroke="white" stroke-opacity="0.02" stroke-width="1.64571"/>
<rect x="822.857" y="128.571" width="82.2857" height="82.2857" stroke="white" stroke-opacity="0.02" stroke-width="1.64571"/>
<rect x="905.143" y="128.571" width="82.2857" height="82.2857" stroke="white" stroke-opacity="0.02" stroke-width="1.64571"/>
<rect x="987.429" y="128.571" width="82.2857" height="82.2857" stroke="white" stroke-opacity="0.02" stroke-width="1.64571"/>
<rect x="1069.71" y="128.571" width="82.2857" height="82.2857" stroke="white" stroke-opacity="0.02" stroke-width="1.64571"/>
<rect x="1152" y="128.571" width="82.2857" height="82.2857" stroke="white" stroke-opacity="0.02" stroke-width="1.64571"/>
<rect x="1234.29" y="128.571" width="82.2857" height="82.2857" stroke="white" stroke-opacity="0.02" stroke-width="1.64571"/>
<rect x="1316.57" y="128.571" width="82.2857" height="82.2857" fill="white" fill-opacity="0.04" stroke="white" stroke-opacity="0.02" stroke-width="1.64571"/>
<rect x="1398.86" y="128.571" width="82.2857" height="82.2857" stroke="white" stroke-opacity="0.02" stroke-width="1.64571"/>
<rect x="1481.14" y="128.571" width="82.2857" height="82.2857" stroke="white" stroke-opacity="0.02" stroke-width="1.64571"/>
<rect x="1563.43" y="128.571" width="82.2857" height="82.2857" stroke="white" stroke-opacity="0.02" stroke-width="1.64571"/>
<rect x="1645.71" y="128.571" width="82.2857" height="82.2857" stroke="white" stroke-opacity="0.02" stroke-width="1.64571"/>
<rect y="210.857" width="82.2857" height="82.2857" stroke="white" stroke-opacity="0.02" stroke-width="1.64571"/>
<rect x="82.2856" y="210.857" width="82.2857" height="82.2857" stroke="white" stroke-opacity="0.02" stroke-width="1.64571"/>
<rect x="164.571" y="210.857" width="82.2857" height="82.2857" stroke="white" stroke-opacity="0.02" stroke-width="1.64571"/>
<rect x="246.857" y="210.857" width="82.2857" height="82.2857" stroke="white" stroke-opacity="0.02" stroke-width="1.64571"/>
<rect x="329.143" y="210.857" width="82.2857" height="82.2857" stroke="white" stroke-opacity="0.02" stroke-width="1.64571"/>
<rect x="411.429" y="210.857" width="82.2857" height="82.2857" stroke="white" stroke-opacity="0.02" stroke-width="1.64571"/>
<rect x="493.714" y="210.857" width="82.2857" height="82.2857" stroke="white" stroke-opacity="0.02" stroke-width="1.64571"/>
<rect x="576" y="210.857" width="82.2857" height="82.2857" stroke="white" stroke-opacity="0.02" stroke-width="1.64571"/>
<rect x="658.286" y="210.857" width="82.2857" height="82.2857" stroke="white" stroke-opacity="0.02" stroke-width="1.64571"/>
<rect x="740.571" y="210.857" width="82.2857" height="82.2857" stroke="white" stroke-opacity="0.02" stroke-width="1.64571"/>
<rect x="822.857" y="210.857" width="82.2857" height="82.2857" stroke="white" stroke-opacity="0.02" stroke-width="1.64571"/>
<rect x="905.143" y="210.857" width="82.2857" height="82.2857" stroke="white" stroke-opacity="0.02" stroke-width="1.64571"/>
<rect x="987.429" y="210.857" width="82.2857" height="82.2857" stroke="white" stroke-opacity="0.02" stroke-width="1.64571"/>
<rect x="1069.71" y="210.857" width="82.2857" height="82.2857" stroke="white" stroke-opacity="0.02" stroke-width="1.64571"/>
<rect x="1152" y="210.857" width="82.2857" height="82.2857" stroke="white" stroke-opacity="0.02" stroke-width="1.64571"/>
<rect x="1234.29" y="210.857" width="82.2857" height="82.2857" stroke="white" stroke-opacity="0.02" stroke-width="1.64571"/>
<rect x="1316.57" y="210.857" width="82.2857" height="82.2857" stroke="white" stroke-opacity="0.02" stroke-width="1.64571"/>
<rect x="1398.86" y="210.857" width="82.2857" height="82.2857" stroke="white" stroke-opacity="0.02" stroke-width="1.64571"/>
<rect x="1481.14" y="210.857" width="82.2857" height="82.2857" stroke="white" stroke-opacity="0.02" stroke-width="1.64571"/>
<rect x="1563.43" y="210.857" width="82.2857" height="82.2857" stroke="white" stroke-opacity="0.02" stroke-width="1.64571"/>
<rect x="1645.71" y="210.857" width="82.2857" height="82.2857" stroke="white" stroke-opacity="0.02" stroke-width="1.64571"/>
<rect y="293.143" width="82.2857" height="82.2857" stroke="white" stroke-opacity="0.02" stroke-width="1.64571"/>
<rect x="82.2856" y="293.143" width="82.2857" height="82.2857" stroke="white" stroke-opacity="0.02" stroke-width="1.64571"/>
<rect x="164.571" y="293.143" width="82.2857" height="82.2857" stroke="white" stroke-opacity="0.02" stroke-width="1.64571"/>
<rect x="246.857" y="293.143" width="82.2857" height="82.2857" fill="white" fill-opacity="0.04" stroke="white" stroke-opacity="0.02" stroke-width="1.64571"/>
<rect x="329.143" y="293.143" width="82.2857" height="82.2857" stroke="white" stroke-opacity="0.02" stroke-width="1.64571"/>
<rect x="411.429" y="293.143" width="82.2857" height="82.2857" stroke="white" stroke-opacity="0.02" stroke-width="1.64571"/>
<rect x="493.714" y="293.143" width="82.2857" height="82.2857" stroke="white" stroke-opacity="0.02" stroke-width="1.64571"/>
<rect x="576" y="293.143" width="82.2857" height="82.2857" stroke="white" stroke-opacity="0.02" stroke-width="1.64571"/>
<rect x="658.286" y="293.143" width="82.2857" height="82.2857" stroke="white" stroke-opacity="0.02" stroke-width="1.64571"/>
<rect x="740.571" y="293.143" width="82.2857" height="82.2857" stroke="white" stroke-opacity="0.02" stroke-width="1.64571"/>
<rect x="822.857" y="293.143" width="82.2857" height="82.2857" stroke="white" stroke-opacity="0.02" stroke-width="1.64571"/>
<rect x="905.143" y="293.143" width="82.2857" height="82.2857" stroke="white" stroke-opacity="0.02" stroke-width="1.64571"/>
<rect x="987.429" y="293.143" width="82.2857" height="82.2857" fill="white" fill-opacity="0.04" stroke="white" stroke-opacity="0.02" stroke-width="1.64571"/>
<rect x="1069.71" y="293.143" width="82.2857" height="82.2857" stroke="white" stroke-opacity="0.02" stroke-width="1.64571"/>
<rect x="1152" y="293.143" width="82.2857" height="82.2857" stroke="white" stroke-opacity="0.02" stroke-width="1.64571"/>
<rect x="1234.29" y="293.143" width="82.2857" height="82.2857" stroke="white" stroke-opacity="0.02" stroke-width="1.64571"/>
<rect x="1316.57" y="293.143" width="82.2857" height="82.2857" stroke="white" stroke-opacity="0.02" stroke-width="1.64571"/>
<rect x="1398.86" y="293.143" width="82.2857" height="82.2857" stroke="white" stroke-opacity="0.02" stroke-width="1.64571"/>
<rect x="1481.14" y="293.143" width="82.2857" height="82.2857" stroke="white" stroke-opacity="0.02" stroke-width="1.64571"/>
<rect x="1563.43" y="293.143" width="82.2857" height="82.2857" stroke="white" stroke-opacity="0.02" stroke-width="1.64571"/>
<rect x="1645.71" y="293.143" width="82.2857" height="82.2857" stroke="white" stroke-opacity="0.02" stroke-width="1.64571"/>
<rect y="375.428" width="82.2857" height="82.2857" stroke="white" stroke-opacity="0.02" stroke-width="1.64571"/>
<rect x="82.2856" y="375.428" width="82.2857" height="82.2857" stroke="white" stroke-opacity="0.02" stroke-width="1.64571"/>
<rect x="164.571" y="375.428" width="82.2857" height="82.2857" stroke="white" stroke-opacity="0.02" stroke-width="1.64571"/>
<rect x="246.857" y="375.428" width="82.2857" height="82.2857" stroke="white" stroke-opacity="0.02" stroke-width="1.64571"/>
<rect x="329.143" y="375.428" width="82.2857" height="82.2857" stroke="white" stroke-opacity="0.02" stroke-width="1.64571"/>
<rect x="411.429" y="375.428" width="82.2857" height="82.2857" stroke="white" stroke-opacity="0.02" stroke-width="1.64571"/>
<rect x="493.714" y="375.428" width="82.2857" height="82.2857" stroke="white" stroke-opacity="0.02" stroke-width="1.64571"/>
<rect x="576" y="375.428" width="82.2857" height="82.2857" stroke="white" stroke-opacity="0.02" stroke-width="1.64571"/>
<rect x="658.286" y="375.428" width="82.2857" height="82.2857" stroke="white" stroke-opacity="0.02" stroke-width="1.64571"/>
<rect x="740.571" y="375.428" width="82.2857" height="82.2857" stroke="white" stroke-opacity="0.02" stroke-width="1.64571"/>
<rect x="822.857" y="375.428" width="82.2857" height="82.2857" stroke="white" stroke-opacity="0.02" stroke-width="1.64571"/>
<rect x="905.143" y="375.428" width="82.2857" height="82.2857" stroke="white" stroke-opacity="0.02" stroke-width="1.64571"/>
<rect x="987.429" y="375.428" width="82.2857" height="82.2857" stroke="white" stroke-opacity="0.02" stroke-width="1.64571"/>
<rect x="1069.71" y="375.428" width="82.2857" height="82.2857" stroke="white" stroke-opacity="0.02" stroke-width="1.64571"/>
<rect x="1152" y="375.428" width="82.2857" height="82.2857" stroke="white" stroke-opacity="0.02" stroke-width="1.64571"/>
<rect x="1234.29" y="375.428" width="82.2857" height="82.2857" stroke="white" stroke-opacity="0.02" stroke-width="1.64571"/>
<rect x="1316.57" y="375.428" width="82.2857" height="82.2857" stroke="white" stroke-opacity="0.02" stroke-width="1.64571"/>
<rect x="1398.86" y="375.428" width="82.2857" height="82.2857" stroke="white" stroke-opacity="0.02" stroke-width="1.64571"/>
<rect x="1481.14" y="375.428" width="82.2857" height="82.2857" fill="white" fill-opacity="0.04" stroke="white" stroke-opacity="0.02" stroke-width="1.64571"/>
<rect x="1563.43" y="375.428" width="82.2857" height="82.2857" stroke="white" stroke-opacity="0.02" stroke-width="1.64571"/>
<rect x="1645.71" y="375.428" width="82.2857" height="82.2857" stroke="white" stroke-opacity="0.02" stroke-width="1.64571"/>
<rect y="457.714" width="82.2857" height="82.2857" stroke="white" stroke-opacity="0.02" stroke-width="1.64571"/>
<rect x="82.2856" y="457.714" width="82.2857" height="82.2857" stroke="white" stroke-opacity="0.02" stroke-width="1.64571"/>
<rect x="164.571" y="457.714" width="82.2857" height="82.2857" stroke="white" stroke-opacity="0.02" stroke-width="1.64571"/>
<rect x="246.857" y="457.714" width="82.2857" height="82.2857" stroke="white" stroke-opacity="0.02" stroke-width="1.64571"/>
<rect x="329.143" y="457.714" width="82.2857" height="82.2857" stroke="white" stroke-opacity="0.02" stroke-width="1.64571"/>
<rect x="411.429" y="457.714" width="82.2857" height="82.2857" stroke="white" stroke-opacity="0.02" stroke-width="1.64571"/>
<rect x="493.714" y="457.714" width="82.2857" height="82.2857" stroke="white" stroke-opacity="0.02" stroke-width="1.64571"/>
<rect x="576" y="457.714" width="82.2857" height="82.2857" stroke="white" stroke-opacity="0.02" stroke-width="1.64571"/>
<rect x="658.286" y="457.714" width="82.2857" height="82.2857" stroke="white" stroke-opacity="0.02" stroke-width="1.64571"/>
<rect x="740.571" y="457.714" width="82.2857" height="82.2857" stroke="white" stroke-opacity="0.02" stroke-width="1.64571"/>
<rect x="822.857" y="457.714" width="82.2857" height="82.2857" stroke="white" stroke-opacity="0.02" stroke-width="1.64571"/>
<rect x="905.143" y="457.714" width="82.2857" height="82.2857" stroke="white" stroke-opacity="0.02" stroke-width="1.64571"/>
<rect x="987.429" y="457.714" width="82.2857" height="82.2857" stroke="white" stroke-opacity="0.02" stroke-width="1.64571"/>
<rect x="1069.71" y="457.714" width="82.2857" height="82.2857" stroke="white" stroke-opacity="0.02" stroke-width="1.64571"/>
<rect x="1152" y="457.714" width="82.2857" height="82.2857" stroke="white" stroke-opacity="0.02" stroke-width="1.64571"/>
<rect x="1234.29" y="457.714" width="82.2857" height="82.2857" stroke="white" stroke-opacity="0.02" stroke-width="1.64571"/>
<rect x="1316.57" y="457.714" width="82.2857" height="82.2857" stroke="white" stroke-opacity="0.02" stroke-width="1.64571"/>
<rect x="1398.86" y="457.714" width="82.2857" height="82.2857" stroke="white" stroke-opacity="0.02" stroke-width="1.64571"/>
<rect x="1481.14" y="457.714" width="82.2857" height="82.2857" stroke="white" stroke-opacity="0.02" stroke-width="1.64571"/>
<rect x="1563.43" y="457.714" width="82.2857" height="82.2857" stroke="white" stroke-opacity="0.02" stroke-width="1.64571"/>
<rect x="1645.71" y="457.714" width="82.2857" height="82.2857" stroke="white" stroke-opacity="0.02" stroke-width="1.64571"/>
<rect y="540" width="82.2857" height="82.2857" stroke="white" stroke-opacity="0.02" stroke-width="1.64571"/>
<rect x="82.2856" y="540" width="82.2857" height="82.2857" stroke="white" stroke-opacity="0.02" stroke-width="1.64571"/>
<rect x="164.571" y="540" width="82.2857" height="82.2857" stroke="white" stroke-opacity="0.02" stroke-width="1.64571"/>
<rect x="246.857" y="540" width="82.2857" height="82.2857" stroke="white" stroke-opacity="0.02" stroke-width="1.64571"/>
<rect x="329.143" y="540" width="82.2857" height="82.2857" stroke="white" stroke-opacity="0.02" stroke-width="1.64571"/>
<rect x="411.429" y="540" width="82.2857" height="82.2857" stroke="white" stroke-opacity="0.02" stroke-width="1.64571"/>
<rect x="493.714" y="540" width="82.2857" height="82.2857" stroke="white" stroke-opacity="0.02" stroke-width="1.64571"/>
<rect x="576" y="540" width="82.2857" height="82.2857" stroke="white" stroke-opacity="0.02" stroke-width="1.64571"/>
<rect x="658.286" y="540" width="82.2857" height="82.2857" fill="white" fill-opacity="0.04" stroke="white" stroke-opacity="0.02" stroke-width="1.64571"/>
<rect x="740.571" y="540" width="82.2857" height="82.2857" stroke="white" stroke-opacity="0.02" stroke-width="1.64571"/>
<rect x="822.857" y="540" width="82.2857" height="82.2857" stroke="white" stroke-opacity="0.02" stroke-width="1.64571"/>
<rect x="905.143" y="540" width="82.2857" height="82.2857" stroke="white" stroke-opacity="0.02" stroke-width="1.64571"/>
<rect x="987.429" y="540" width="82.2857" height="82.2857" stroke="white" stroke-opacity="0.02" stroke-width="1.64571"/>
<rect x="1069.71" y="540" width="82.2857" height="82.2857" stroke="white" stroke-opacity="0.02" stroke-width="1.64571"/>
<rect x="1152" y="540" width="82.2857" height="82.2857" stroke="white" stroke-opacity="0.02" stroke-width="1.64571"/>
<rect x="1234.29" y="540" width="82.2857" height="82.2857" stroke="white" stroke-opacity="0.02" stroke-width="1.64571"/>
<rect x="1316.57" y="540" width="82.2857" height="82.2857" stroke="white" stroke-opacity="0.02" stroke-width="1.64571"/>
<rect x="1398.86" y="540" width="82.2857" height="82.2857" stroke="white" stroke-opacity="0.02" stroke-width="1.64571"/>
<rect x="1481.14" y="540" width="82.2857" height="82.2857" stroke="white" stroke-opacity="0.02" stroke-width="1.64571"/>
<rect x="1563.43" y="540" width="82.2857" height="82.2857" stroke="white" stroke-opacity="0.02" stroke-width="1.64571"/>
<rect x="1645.71" y="540" width="82.2857" height="82.2857" stroke="white" stroke-opacity="0.02" stroke-width="1.64571"/>
<rect y="622.286" width="82.2857" height="82.2857" stroke="white" stroke-opacity="0.02" stroke-width="1.64571"/>
<rect x="82.2856" y="622.286" width="82.2857" height="82.2857" stroke="white" stroke-opacity="0.02" stroke-width="1.64571"/>
<rect x="164.571" y="622.286" width="82.2857" height="82.2857" stroke="white" stroke-opacity="0.02" stroke-width="1.64571"/>
<rect x="246.857" y="622.286" width="82.2857" height="82.2857" stroke="white" stroke-opacity="0.02" stroke-width="1.64571"/>
<rect x="329.143" y="622.286" width="82.2857" height="82.2857" fill="white" fill-opacity="0.04" stroke="white" stroke-opacity="0.02" stroke-width="1.64571"/>
<rect x="411.429" y="622.286" width="82.2857" height="82.2857" stroke="white" stroke-opacity="0.02" stroke-width="1.64571"/>
<rect x="493.714" y="622.286" width="82.2857" height="82.2857" stroke="white" stroke-opacity="0.02" stroke-width="1.64571"/>
<rect x="576" y="622.286" width="82.2857" height="82.2857" stroke="white" stroke-opacity="0.02" stroke-width="1.64571"/>
<rect x="658.286" y="622.286" width="82.2857" height="82.2857" stroke="white" stroke-opacity="0.02" stroke-width="1.64571"/>
<rect x="740.571" y="622.286" width="82.2857" height="82.2857" stroke="white" stroke-opacity="0.02" stroke-width="1.64571"/>
<rect x="822.857" y="622.286" width="82.2857" height="82.2857" stroke="white" stroke-opacity="0.02" stroke-width="1.64571"/>
<rect x="905.143" y="622.286" width="82.2857" height="82.2857" stroke="white" stroke-opacity="0.02" stroke-width="1.64571"/>
<rect x="987.429" y="622.286" width="82.2857" height="82.2857" stroke="white" stroke-opacity="0.02" stroke-width="1.64571"/>
<rect x="1069.71" y="622.286" width="82.2857" height="82.2857" stroke="white" stroke-opacity="0.02" stroke-width="1.64571"/>
<rect x="1152" y="622.286" width="82.2857" height="82.2857" stroke="white" stroke-opacity="0.02" stroke-width="1.64571"/>
<rect x="1234.29" y="622.286" width="82.2857" height="82.2857" stroke="white" stroke-opacity="0.02" stroke-width="1.64571"/>
<rect x="1316.57" y="622.286" width="82.2857" height="82.2857" stroke="white" stroke-opacity="0.02" stroke-width="1.64571"/>
<rect x="1398.86" y="622.286" width="82.2857" height="82.2857" stroke="white" stroke-opacity="0.02" stroke-width="1.64571"/>
<rect x="1481.14" y="622.286" width="82.2857" height="82.2857" stroke="white" stroke-opacity="0.02" stroke-width="1.64571"/>
<rect x="1563.43" y="622.286" width="82.2857" height="82.2857" stroke="white" stroke-opacity="0.02" stroke-width="1.64571"/>
<rect x="1645.71" y="622.286" width="82.2857" height="82.2857" stroke="white" stroke-opacity="0.02" stroke-width="1.64571"/>
<rect y="704.571" width="82.2857" height="82.2857" stroke="white" stroke-opacity="0.02" stroke-width="1.64571"/>
<rect x="82.2856" y="704.571" width="82.2857" height="82.2857" stroke="white" stroke-opacity="0.02" stroke-width="1.64571"/>
<rect x="164.571" y="704.571" width="82.2857" height="82.2857" stroke="white" stroke-opacity="0.02" stroke-width="1.64571"/>
<rect x="246.857" y="704.571" width="82.2857" height="82.2857" stroke="white" stroke-opacity="0.02" stroke-width="1.64571"/>
<rect x="329.143" y="704.571" width="82.2857" height="82.2857" stroke="white" stroke-opacity="0.02" stroke-width="1.64571"/>
<rect x="411.429" y="704.571" width="82.2857" height="82.2857" stroke="white" stroke-opacity="0.02" stroke-width="1.64571"/>
<rect x="493.714" y="704.571" width="82.2857" height="82.2857" stroke="white" stroke-opacity="0.02" stroke-width="1.64571"/>
<rect x="576" y="704.571" width="82.2857" height="82.2857" stroke="white" stroke-opacity="0.02" stroke-width="1.64571"/>
<rect x="658.286" y="704.571" width="82.2857" height="82.2857" stroke="white" stroke-opacity="0.02" stroke-width="1.64571"/>
<rect x="740.571" y="704.571" width="82.2857" height="82.2857" stroke="white" stroke-opacity="0.02" stroke-width="1.64571"/>
<rect x="822.857" y="704.571" width="82.2857" height="82.2857" stroke="white" stroke-opacity="0.02" stroke-width="1.64571"/>
<rect x="905.143" y="704.571" width="82.2857" height="82.2857" stroke="white" stroke-opacity="0.02" stroke-width="1.64571"/>
<rect x="987.429" y="704.571" width="82.2857" height="82.2857" stroke="white" stroke-opacity="0.02" stroke-width="1.64571"/>
<rect x="1069.71" y="704.571" width="82.2857" height="82.2857" stroke="white" stroke-opacity="0.02" stroke-width="1.64571"/>
<rect x="1152" y="704.571" width="82.2857" height="82.2857" stroke="white" stroke-opacity="0.02" stroke-width="1.64571"/>
<rect x="1234.29" y="704.571" width="82.2857" height="82.2857" stroke="white" stroke-opacity="0.02" stroke-width="1.64571"/>
<rect x="1316.57" y="704.571" width="82.2857" height="82.2857" stroke="white" stroke-opacity="0.02" stroke-width="1.64571"/>
<rect x="1398.86" y="704.571" width="82.2857" height="82.2857" stroke="white" stroke-opacity="0.02" stroke-width="1.64571"/>
<rect x="1481.14" y="704.571" width="82.2857" height="82.2857" stroke="white" stroke-opacity="0.02" stroke-width="1.64571"/>
<rect x="1563.43" y="704.571" width="82.2857" height="82.2857" stroke="white" stroke-opacity="0.02" stroke-width="1.64571"/>
<rect x="1645.71" y="704.571" width="82.2857" height="82.2857" stroke="white" stroke-opacity="0.02" stroke-width="1.64571"/>
<rect y="786.857" width="82.2857" height="82.2857" stroke="white" stroke-opacity="0.02" stroke-width="1.64571"/>
<rect x="82.2856" y="786.857" width="82.2857" height="82.2857" stroke="white" stroke-opacity="0.02" stroke-width="1.64571"/>
<rect x="164.571" y="786.857" width="82.2857" height="82.2857" stroke="white" stroke-opacity="0.02" stroke-width="1.64571"/>
<rect x="246.857" y="786.857" width="82.2857" height="82.2857" stroke="white" stroke-opacity="0.02" stroke-width="1.64571"/>
<rect x="329.143" y="786.857" width="82.2857" height="82.2857" stroke="white" stroke-opacity="0.02" stroke-width="1.64571"/>
<rect x="411.429" y="786.857" width="82.2857" height="82.2857" stroke="white" stroke-opacity="0.02" stroke-width="1.64571"/>
<rect x="493.714" y="786.857" width="82.2857" height="82.2857" stroke="white" stroke-opacity="0.02" stroke-width="1.64571"/>
<rect x="576" y="786.857" width="82.2857" height="82.2857" stroke="white" stroke-opacity="0.02" stroke-width="1.64571"/>
<rect x="658.286" y="786.857" width="82.2857" height="82.2857" stroke="white" stroke-opacity="0.02" stroke-width="1.64571"/>
<rect x="740.571" y="786.857" width="82.2857" height="82.2857" stroke="white" stroke-opacity="0.02" stroke-width="1.64571"/>
<rect x="822.857" y="786.857" width="82.2857" height="82.2857" stroke="white" stroke-opacity="0.02" stroke-width="1.64571"/>
<rect x="905.143" y="786.857" width="82.2857" height="82.2857" stroke="white" stroke-opacity="0.02" stroke-width="1.64571"/>
<rect x="987.429" y="786.857" width="82.2857" height="82.2857" stroke="white" stroke-opacity="0.02" stroke-width="1.64571"/>
<rect x="1069.71" y="786.857" width="82.2857" height="82.2857" stroke="white" stroke-opacity="0.02" stroke-width="1.64571"/>
<rect x="1152" y="786.857" width="82.2857" height="82.2857" stroke="white" stroke-opacity="0.02" stroke-width="1.64571"/>
<rect x="1234.29" y="786.857" width="82.2857" height="82.2857" stroke="white" stroke-opacity="0.02" stroke-width="1.64571"/>
<rect x="1316.57" y="786.857" width="82.2857" height="82.2857" stroke="white" stroke-opacity="0.02" stroke-width="1.64571"/>
<rect x="1398.86" y="786.857" width="82.2857" height="82.2857" stroke="white" stroke-opacity="0.02" stroke-width="1.64571"/>
<rect x="1481.14" y="786.857" width="82.2857" height="82.2857" stroke="white" stroke-opacity="0.02" stroke-width="1.64571"/>
<rect x="1563.43" y="786.857" width="82.2857" height="82.2857" stroke="white" stroke-opacity="0.02" stroke-width="1.64571"/>
<rect x="1645.71" y="786.857" width="82.2857" height="82.2857" stroke="white" stroke-opacity="0.02" stroke-width="1.64571"/>
<rect y="1035" width="82.2857" height="82.2857" stroke="white" stroke-opacity="0.02" stroke-width="1.64571"/>
<rect x="82.2856" y="1035" width="82.2857" height="82.2857" stroke="white" stroke-opacity="0.02" stroke-width="1.64571"/>
<rect x="164.571" y="1035" width="82.2857" height="82.2857" stroke="white" stroke-opacity="0.02" stroke-width="1.64571"/>
<rect x="246.857" y="1035" width="82.2857" height="82.2857" stroke="white" stroke-opacity="0.02" stroke-width="1.64571"/>
<rect x="329.143" y="1035" width="82.2857" height="82.2857" stroke="white" stroke-opacity="0.02" stroke-width="1.64571"/>
<rect x="411.429" y="1035" width="82.2857" height="82.2857" stroke="white" stroke-opacity="0.02" stroke-width="1.64571"/>
<rect x="493.714" y="1035" width="82.2857" height="82.2857" stroke="white" stroke-opacity="0.02" stroke-width="1.64571"/>
<rect x="576" y="1035" width="82.2857" height="82.2857" stroke="white" stroke-opacity="0.02" stroke-width="1.64571"/>
<rect x="658.286" y="1035" width="82.2857" height="82.2857" stroke="white" stroke-opacity="0.02" stroke-width="1.64571"/>
<rect x="740.571" y="1035" width="82.2857" height="82.2857" stroke="white" stroke-opacity="0.02" stroke-width="1.64571"/>
<rect x="822.857" y="1035" width="82.2857" height="82.2857" stroke="white" stroke-opacity="0.02" stroke-width="1.64571"/>
<rect x="905.143" y="1035" width="82.2857" height="82.2857" fill="white" fill-opacity="0.04" stroke="white" stroke-opacity="0.02" stroke-width="1.64571"/>
<rect x="987.429" y="1035" width="82.2857" height="82.2857" stroke="white" stroke-opacity="0.02" stroke-width="1.64571"/>
<rect x="1069.71" y="1035" width="82.2857" height="82.2857" stroke="white" stroke-opacity="0.02" stroke-width="1.64571"/>
<rect x="1152" y="1035" width="82.2857" height="82.2857" stroke="white" stroke-opacity="0.02" stroke-width="1.64571"/>
<rect x="1234.29" y="1035" width="82.2857" height="82.2857" stroke="white" stroke-opacity="0.02" stroke-width="1.64571"/>
<rect x="1316.57" y="1035" width="82.2857" height="82.2857" stroke="white" stroke-opacity="0.02" stroke-width="1.64571"/>
<rect x="1398.86" y="1035" width="82.2857" height="82.2857" stroke="white" stroke-opacity="0.02" stroke-width="1.64571"/>
<rect x="1481.14" y="1035" width="82.2857" height="82.2857" stroke="white" stroke-opacity="0.02" stroke-width="1.64571"/>
<rect x="1563.43" y="1035" width="82.2857" height="82.2857" stroke="white" stroke-opacity="0.02" stroke-width="1.64571"/>
<rect x="1645.71" y="1035" width="82.2857" height="82.2857" stroke="white" stroke-opacity="0.02" stroke-width="1.64571"/>
<rect y="869.143" width="82.2857" height="82.2857" stroke="white" stroke-opacity="0.02" stroke-width="1.64571"/>
<rect x="82.2856" y="869.143" width="82.2857" height="82.2857" stroke="white" stroke-opacity="0.02" stroke-width="1.64571"/>
<rect x="164.571" y="869.143" width="82.2857" height="82.2857" stroke="white" stroke-opacity="0.02" stroke-width="1.64571"/>
<rect x="246.857" y="869.143" width="82.2857" height="82.2857" stroke="white" stroke-opacity="0.02" stroke-width="1.64571"/>
<rect x="329.143" y="869.143" width="82.2857" height="82.2857" stroke="white" stroke-opacity="0.02" stroke-width="1.64571"/>
<rect x="411.429" y="869.143" width="82.2857" height="82.2857" stroke="white" stroke-opacity="0.02" stroke-width="1.64571"/>
<rect x="493.714" y="869.143" width="82.2857" height="82.2857" fill="white" fill-opacity="0.04" stroke="white" stroke-opacity="0.02" stroke-width="1.64571"/>
<rect x="576" y="869.143" width="82.2857" height="82.2857" stroke="white" stroke-opacity="0.02" stroke-width="1.64571"/>
<rect x="658.286" y="869.143" width="82.2857" height="82.2857" stroke="white" stroke-opacity="0.02" stroke-width="1.64571"/>
<rect x="740.571" y="869.143" width="82.2857" height="82.2857" stroke="white" stroke-opacity="0.02" stroke-width="1.64571"/>
<rect x="822.857" y="869.143" width="82.2857" height="82.2857" stroke="white" stroke-opacity="0.02" stroke-width="1.64571"/>
<rect x="905.143" y="869.143" width="82.2857" height="82.2857" stroke="white" stroke-opacity="0.02" stroke-width="1.64571"/>
<rect x="987.429" y="869.143" width="82.2857" height="82.2857" stroke="white" stroke-opacity="0.02" stroke-width="1.64571"/>
<rect x="1069.71" y="869.143" width="82.2857" height="82.2857" stroke="white" stroke-opacity="0.02" stroke-width="1.64571"/>
<rect x="1152" y="869.143" width="82.2857" height="82.2857" stroke="white" stroke-opacity="0.02" stroke-width="1.64571"/>
<rect x="1234.29" y="869.143" width="82.2857" height="82.2857" stroke="white" stroke-opacity="0.02" stroke-width="1.64571"/>
<rect x="1316.57" y="869.143" width="82.2857" height="82.2857" stroke="white" stroke-opacity="0.02" stroke-width="1.64571"/>
<rect x="1398.86" y="869.143" width="82.2857" height="82.2857" stroke="white" stroke-opacity="0.02" stroke-width="1.64571"/>
<rect x="1481.14" y="869.143" width="82.2857" height="82.2857" stroke="white" stroke-opacity="0.02" stroke-width="1.64571"/>
<rect x="1563.43" y="869.143" width="82.2857" height="82.2857" stroke="white" stroke-opacity="0.02" stroke-width="1.64571"/>
<rect x="1645.71" y="869.143" width="82.2857" height="82.2857" stroke="white" stroke-opacity="0.02" stroke-width="1.64571"/>
<rect y="951.429" width="82.2857" height="82.2857" stroke="white" stroke-opacity="0.02" stroke-width="1.64571"/>
<rect x="82.2856" y="951.428" width="82.2857" height="82.2857" stroke="white" stroke-opacity="0.02" stroke-width="1.64571"/>
<rect x="164.571" y="951.428" width="82.2857" height="82.2857" stroke="white" stroke-opacity="0.02" stroke-width="1.64571"/>
<rect x="246.857" y="951.428" width="82.2857" height="82.2857" stroke="white" stroke-opacity="0.02" stroke-width="1.64571"/>
<rect x="329.143" y="951.428" width="82.2857" height="82.2857" stroke="white" stroke-opacity="0.02" stroke-width="1.64571"/>
<rect x="411.429" y="951.428" width="82.2857" height="82.2857" stroke="white" stroke-opacity="0.02" stroke-width="1.64571"/>
<rect x="493.714" y="951.428" width="82.2857" height="82.2857" stroke="white" stroke-opacity="0.02" stroke-width="1.64571"/>
<rect x="576" y="951.428" width="82.2857" height="82.2857" stroke="white" stroke-opacity="0.02" stroke-width="1.64571"/>
<rect x="658.286" y="951.428" width="82.2857" height="82.2857" stroke="white" stroke-opacity="0.02" stroke-width="1.64571"/>
<rect x="740.571" y="951.428" width="82.2857" height="82.2857" stroke="white" stroke-opacity="0.02" stroke-width="1.64571"/>
<rect x="822.857" y="951.428" width="82.2857" height="82.2857" stroke="white" stroke-opacity="0.02" stroke-width="1.64571"/>
<rect x="905.143" y="951.428" width="82.2857" height="82.2857" stroke="white" stroke-opacity="0.02" stroke-width="1.64571"/>
<rect x="987.429" y="951.428" width="82.2857" height="82.2857" stroke="white" stroke-opacity="0.02" stroke-width="1.64571"/>
<rect x="1069.71" y="951.428" width="82.2857" height="82.2857" stroke="white" stroke-opacity="0.02" stroke-width="1.64571"/>
<rect x="1152" y="951.428" width="82.2857" height="82.2857" stroke="white" stroke-opacity="0.02" stroke-width="1.64571"/>
<rect x="1234.29" y="951.428" width="82.2857" height="82.2857" stroke="white" stroke-opacity="0.02" stroke-width="1.64571"/>
<rect x="1316.57" y="951.428" width="82.2857" height="82.2857" stroke="white" stroke-opacity="0.02" stroke-width="1.64571"/>
<rect x="1398.86" y="951.428" width="82.2857" height="82.2857" stroke="white" stroke-opacity="0.02" stroke-width="1.64571"/>
<rect x="1481.14" y="951.428" width="82.2857" height="82.2857" stroke="white" stroke-opacity="0.02" stroke-width="1.64571"/>
<rect x="1563.43" y="951.428" width="82.2857" height="82.2857" stroke="white" stroke-opacity="0.02" stroke-width="1.64571"/>
<rect x="1645.71" y="951.428" width="82.2857" height="82.2857" stroke="white" stroke-opacity="0.02" stroke-width="1.64571"/>
</svg>
