<svg width="26" height="25" viewBox="0 0 26 25" fill="none" xmlns="http://www.w3.org/2000/svg">
<g id="Group">
<path id="Vector" fill-rule="evenodd" clip-rule="evenodd" d="M12.9959 0.300049C10.0713 0.301566 7.24251 1.33742 5.01547 3.22239C2.78844 5.10735 1.30833 7.71852 0.839821 10.589C0.371308 13.4594 0.94493 16.402 2.45813 18.8905C3.97133 21.379 6.32543 23.2512 9.09949 24.1723C9.71149 24.2859 9.94201 23.9066 9.94201 23.5841C9.94201 23.2616 9.92977 22.3265 9.92569 21.3042C6.49848 22.0445 5.77428 19.8579 5.77428 19.8579C5.21531 18.438 4.40747 18.0648 4.40747 18.0648C3.28954 17.3062 4.49112 17.3204 4.49112 17.3204C5.7294 17.4076 6.38017 18.5841 6.38017 18.5841C7.47769 20.4563 9.26269 19.9147 9.96445 19.5983C10.0746 18.8052 10.3949 18.2656 10.7478 17.9593C8.01013 17.651 5.13371 16.6003 5.13371 11.9066C5.11674 10.6893 5.57104 9.51209 6.4026 8.61854C6.27612 8.31022 5.85383 7.06478 6.52296 5.37309C6.52296 5.37309 7.55725 5.04449 9.91142 6.62867C11.9307 6.07961 14.0611 6.07961 16.0804 6.62867C18.4325 5.04449 19.4648 5.37309 19.4648 5.37309C20.1359 7.06072 19.7137 8.30616 19.5872 8.61854C20.4214 9.51223 20.8766 10.6915 20.8581 11.9106C20.8581 16.6145 17.9756 17.651 15.2338 17.9533C15.6744 18.3346 16.0682 19.079 16.0682 20.223C16.0682 21.862 16.0539 23.1805 16.0539 23.5841C16.0539 23.9107 16.2762 24.292 16.9005 24.1723C19.6749 23.2511 22.0292 21.3786 23.5424 18.8897C25.0555 16.4007 25.6289 13.4577 25.1598 10.587C24.6908 7.71625 23.2099 5.10506 20.9822 3.22042C18.7544 1.33578 15.925 0.300604 13 0.300049H12.9959Z" fill="white"/>
<path id="Vector_2" d="M5.34147 17.8883C5.31495 17.9491 5.21703 17.9674 5.13747 17.9248C5.05791 17.8822 4.99876 17.8031 5.02732 17.7402C5.05588 17.6773 5.15176 17.6611 5.23132 17.7037C5.31088 17.7463 5.37207 17.8274 5.34147 17.8883Z" fill="white"/>
<path id="Vector_3" d="M5.84141 18.4422C5.79917 18.4633 5.75083 18.4692 5.70469 18.4589C5.65854 18.4485 5.61746 18.4225 5.58845 18.3854C5.50889 18.3002 5.49257 18.1825 5.55377 18.1298C5.61497 18.0771 5.72513 18.1014 5.80469 18.1866C5.88426 18.2718 5.90261 18.3894 5.84141 18.4422Z" fill="white"/>
<path id="Vector_4" d="M6.3271 19.1459C6.25162 19.1987 6.12309 19.1459 6.05169 19.0405C6.03194 19.0215 6.01625 18.9989 6.00552 18.9738C5.99479 18.9487 5.98926 18.9217 5.98926 18.8944C5.98926 18.8671 5.99479 18.8402 6.00552 18.8151C6.01625 18.79 6.03194 18.7673 6.05169 18.7484C6.12717 18.6977 6.2557 18.7484 6.3271 18.8518C6.3985 18.9553 6.40054 19.0932 6.3271 19.1459Z" fill="white"/>
<path id="Vector_5" d="M6.98573 19.8276C6.91841 19.9026 6.78174 19.8823 6.66954 19.7809C6.55734 19.6795 6.53081 19.5416 6.59813 19.4686C6.66545 19.3955 6.80213 19.4158 6.91841 19.5152C7.03469 19.6146 7.05713 19.7546 6.98573 19.8276Z" fill="white"/>
<path id="Vector_6" d="M7.90967 20.2249C7.87907 20.3203 7.74035 20.3629 7.60163 20.3223C7.46291 20.2817 7.37111 20.1681 7.39763 20.0708C7.42415 19.9734 7.56491 19.9288 7.70567 19.9734C7.84643 20.018 7.93619 20.1255 7.90967 20.2249Z" fill="white"/>
<path id="Vector_7" d="M8.91752 20.294C8.91752 20.3934 8.80328 20.4786 8.6564 20.4806C8.50952 20.4827 8.38916 20.4015 8.38916 20.3021C8.38916 20.2027 8.50339 20.1175 8.65028 20.1155C8.79716 20.1135 8.91752 20.1926 8.91752 20.294Z" fill="white"/>
<path id="Vector_8" d="M9.85594 20.1378C9.8743 20.2372 9.7723 20.3407 9.62542 20.365C9.47854 20.3894 9.35002 20.3305 9.33166 20.2332C9.3133 20.1358 9.41938 20.0303 9.56218 20.004C9.70498 19.9776 9.83758 20.0384 9.85594 20.1378Z" fill="white"/>
</g>
</svg>
