<svg width="36" height="36" viewBox="0 0 36 36" fill="none" xmlns="http://www.w3.org/2000/svg">
<g id="LinkedIn">
<rect width="36" height="36" rx="18" fill="black"/>
<path id="Vector" d="M26.4385 8.1001H9.56172C9.17408 8.1001 8.80231 8.25409 8.5282 8.5282C8.25409 8.80231 8.1001 9.17408 8.1001 9.56172V26.4385C8.1001 26.8261 8.25409 27.1979 8.5282 27.472C8.80231 27.7461 9.17408 27.9001 9.56172 27.9001H26.4385C26.8261 27.9001 27.1979 27.7461 27.472 27.472C27.7461 27.1979 27.9001 26.8261 27.9001 26.4385V9.56172C27.9001 9.17408 27.7461 8.80231 27.472 8.5282C27.1979 8.25409 26.8261 8.1001 26.4385 8.1001ZM14.0016 24.9672H11.0247V15.5113H14.0016V24.9672ZM12.5111 14.201C12.1734 14.1991 11.8439 14.0972 11.5641 13.9082C11.2842 13.7192 11.0667 13.4515 10.9388 13.1389C10.811 12.8264 10.7786 12.483 10.8457 12.152C10.9129 11.8211 11.0765 11.5175 11.3161 11.2795C11.5556 11.0415 11.8603 10.8797 12.1917 10.8147C12.523 10.7497 12.8662 10.7843 13.1779 10.9142C13.4897 11.044 13.7559 11.2633 13.9431 11.5443C14.1303 11.8254 14.2301 12.1555 14.2298 12.4932C14.233 12.7193 14.1907 12.9437 14.1053 13.1531C14.0199 13.3624 13.8932 13.5524 13.7328 13.7118C13.5725 13.8712 13.3816 13.9966 13.1717 14.0806C12.9618 14.1647 12.7372 14.2056 12.5111 14.201ZM24.9741 24.9755H21.9986V19.8096C21.9986 18.2861 21.351 17.8158 20.515 17.8158C19.6322 17.8158 18.766 18.4813 18.766 19.8481V24.9755H15.7891V15.5182H18.6518V16.8286H18.6903C18.9777 16.247 19.9842 15.2528 21.5201 15.2528C23.1811 15.2528 24.9755 16.2387 24.9755 19.1262L24.9741 24.9755Z" fill="white"/>
</g>
</svg>
