<svg width="36" height="36" viewBox="0 0 36 36" fill="none" xmlns="http://www.w3.org/2000/svg">
<g id="Twitter">
<rect width="36" height="36" rx="18" fill="black"/>
<path id="Vector" d="M14.7062 27.4949C22.6892 27.4949 27.0542 20.8799 27.0542 15.1469C27.0542 14.9579 27.0542 14.7689 27.0452 14.5889C27.8912 13.9769 28.6292 13.2119 29.2142 12.3389C28.4402 12.6809 27.6032 12.9149 26.7212 13.0229C27.6212 12.4829 28.3052 11.6369 28.6292 10.6199C27.7922 11.1149 26.8652 11.4749 25.8752 11.6729C25.0832 10.8269 23.9582 10.3049 22.7072 10.3049C20.3132 10.3049 18.3692 12.2489 18.3692 14.6429C18.3692 14.9849 18.4052 15.3179 18.4862 15.6329C14.8772 15.4529 11.6822 13.7249 9.54024 11.0969C9.17124 11.7359 8.95524 12.4829 8.95524 13.2749C8.95524 14.7779 9.72024 16.1099 10.8902 16.8839C10.1792 16.8659 9.51324 16.6679 8.92824 16.3439C8.92824 16.3619 8.92824 16.3799 8.92824 16.3979C8.92824 18.5039 10.4222 20.2499 12.4112 20.6549C12.0512 20.7539 11.6642 20.8079 11.2682 20.8079C10.9892 20.8079 10.7192 20.7809 10.4492 20.7269C10.9982 22.4549 12.6002 23.7059 14.4992 23.7419C13.0142 24.9029 11.1422 25.5959 9.10824 25.5959C8.75724 25.5959 8.41524 25.5779 8.07324 25.5329C9.97224 26.7749 12.2582 27.4949 14.7062 27.4949Z" fill="white"/>
</g>
</svg>
