<svg width="36" height="36" viewBox="0 0 36 36" fill="none" xmlns="http://www.w3.org/2000/svg">
<g id="Instagram">
<rect width="36" height="36" rx="18" fill="black"/>
<path id="Vector" d="M18.0031 9.1467C20.8889 9.1467 21.2277 9.15956 22.3683 9.21101C23.4231 9.25818 23.9934 9.43399 24.375 9.58407C24.881 9.78132 25.2412 10.0129 25.6186 10.3902C25.9959 10.7676 26.2317 11.1277 26.4247 11.6337C26.5705 12.0154 26.7506 12.5857 26.7978 13.6405C26.8492 14.7811 26.8621 15.1199 26.8621 18.0057C26.8621 20.8915 26.8492 21.2302 26.7978 22.3708C26.7506 23.4257 26.5748 23.996 26.4247 24.3776C26.2275 24.8836 25.9959 25.2438 25.6186 25.6211C25.2412 25.9985 24.881 26.2343 24.375 26.4273C23.9934 26.5731 23.4231 26.7532 22.3683 26.8003C21.2277 26.8518 20.8889 26.8646 18.0031 26.8646C15.1173 26.8646 14.7785 26.8518 13.6379 26.8003C12.5831 26.7532 12.0128 26.5773 11.6311 26.4273C11.1252 26.23 10.765 25.9985 10.3876 25.6211C10.0103 25.2438 9.77445 24.8836 9.58149 24.3776C9.4357 23.996 9.25561 23.4257 9.20844 22.3708C9.15698 21.2302 9.14412 20.8915 9.14412 18.0057C9.14412 15.1199 9.15698 14.7811 9.20844 13.6405C9.25561 12.5857 9.43141 12.0154 9.58149 11.6337C9.77874 11.1277 10.0103 10.7676 10.3876 10.3902C10.765 10.0129 11.1252 9.77703 11.6311 9.58407C12.0128 9.43828 12.5831 9.25818 13.6379 9.21101C14.7785 9.15527 15.1216 9.1467 18.0031 9.1467ZM18.0031 7.19995C15.0701 7.19995 14.7013 7.21282 13.5479 7.26427C12.3987 7.31573 11.614 7.50011 10.9279 7.76596C10.2161 8.0404 9.6158 8.41345 9.01548 9.01377C8.41516 9.61409 8.04639 10.2187 7.76767 10.9262C7.50182 11.6123 7.31744 12.397 7.26598 13.5505C7.21452 14.6996 7.20166 15.0684 7.20166 18.0014C7.20166 20.9344 7.21452 21.3031 7.26598 22.4566C7.31744 23.6058 7.50182 24.3905 7.76767 25.0808C8.04211 25.7926 8.41516 26.393 9.01548 26.9933C9.6158 27.5936 10.2204 27.9624 10.9279 28.2411C11.614 28.5069 12.3987 28.6913 13.5522 28.7428C14.7056 28.7942 15.0701 28.8071 18.0074 28.8071C20.9447 28.8071 21.3091 28.7942 22.4626 28.7428C23.6118 28.6913 24.3965 28.5069 25.0868 28.2411C25.7987 27.9667 26.399 27.5936 26.9993 26.9933C27.5996 26.393 27.9684 25.7884 28.2471 25.0808C28.5129 24.3948 28.6973 23.6101 28.7488 22.4566C28.8002 21.3031 28.8131 20.9386 28.8131 18.0014C28.8131 15.0641 28.8002 14.6996 28.7488 13.5462C28.6973 12.397 28.5129 11.6123 28.2471 10.9219C27.9727 10.2101 27.5996 9.6098 26.9993 9.00948C26.399 8.40916 25.7944 8.0404 25.0868 7.76168C24.4008 7.49582 23.6161 7.31144 22.4626 7.25998C21.3048 7.21282 20.9361 7.19995 18.0031 7.19995Z" fill="white"/>
<path id="Vector_2" d="M18.0028 12.457C14.9411 12.457 12.4541 14.9398 12.4541 18.0057C12.4541 21.0716 14.9368 23.5543 18.0028 23.5543C21.0687 23.5543 23.5514 21.0716 23.5514 18.0057C23.5514 14.9398 21.0687 12.457 18.0028 12.457ZM18.0028 21.6033C16.0131 21.6033 14.4008 19.991 14.4008 18.0014C14.4008 16.0118 16.0131 14.3995 18.0028 14.3995C19.9924 14.3995 21.6047 16.0118 21.6047 18.0014C21.6047 19.991 19.9924 21.6033 18.0028 21.6033Z" fill="white"/>
<path id="Vector_3" d="M23.7701 13.5292C24.4853 13.5292 25.065 12.9494 25.065 12.2342C25.065 11.519 24.4853 10.9392 23.7701 10.9392C23.0549 10.9392 22.4751 11.519 22.4751 12.2342C22.4751 12.9494 23.0549 13.5292 23.7701 13.5292Z" fill="white"/>
</g>
</svg>
