<svg width="40" height="38" viewBox="0 0 40 38" fill="none" xmlns="http://www.w3.org/2000/svg">
<path fill-rule="evenodd" clip-rule="evenodd" d="M19.9935 0.800049C15.444 0.802409 11.0437 2.41374 7.57946 5.34591C4.11518 8.27808 1.8128 12.3399 1.084 16.805C0.355205 21.2702 1.24751 25.8475 3.60137 29.7186C5.95524 33.5896 9.61717 36.5019 13.9324 37.9347C14.8844 38.1114 15.243 37.5214 15.243 37.0197C15.243 36.518 15.2239 35.0634 15.2176 33.4731C9.88635 34.6248 8.75982 31.2234 8.75982 31.2234C7.89033 29.0147 6.63368 28.4341 6.63368 28.4341C4.89468 27.2541 6.7638 27.2761 6.7638 27.2761C8.69002 27.4118 9.70232 29.2419 9.70232 29.2419C11.4096 32.1542 14.1862 31.3118 15.2779 30.8195C15.4492 29.5858 15.9475 28.7465 16.4964 28.2701C12.2378 27.7905 7.76339 26.156 7.76339 18.8547C7.73699 16.9611 8.44368 15.1299 9.73722 13.7399C9.54047 13.2603 8.88358 11.323 9.92444 8.69145C9.92444 8.69145 11.5333 8.18029 15.1954 10.6446C18.3364 9.79048 21.6505 9.79048 24.7916 10.6446C28.4504 8.18029 30.0561 8.69145 30.0561 8.69145C31.1002 11.3167 30.4433 13.254 30.2466 13.7399C31.5442 15.1301 32.2523 16.9645 32.2235 18.861C32.2235 26.1781 27.7396 27.7905 23.4746 28.2606C24.1601 28.8538 24.7725 30.0118 24.7725 31.7914C24.7725 34.3408 24.7503 36.3918 24.7503 37.0197C24.7503 37.5277 25.0962 38.1209 26.0672 37.9347C30.383 36.5017 34.0452 33.5889 36.3991 29.7172C38.7529 25.8455 39.6447 21.2675 38.9151 16.8019C38.1855 12.3364 35.882 8.27451 32.4165 5.34285C28.9511 2.41118 24.5498 0.800913 19.9998 0.800049H19.9935Z" fill="white"/>
<path d="M8.08646 28.1596C8.04521 28.2543 7.89289 28.2827 7.76913 28.2164C7.64537 28.1502 7.55335 28.0271 7.59778 27.9293C7.6422 27.8315 7.79135 27.8062 7.91511 27.8725C8.03887 27.9388 8.13406 28.065 8.08646 28.1596Z" fill="white"/>
<path d="M8.86415 29.021C8.79843 29.0539 8.72325 29.0631 8.65146 29.047C8.57968 29.0309 8.51577 28.9905 8.47066 28.9327C8.3469 28.8002 8.3215 28.6171 8.4167 28.5351C8.5119 28.4531 8.68327 28.4909 8.80703 28.6235C8.93079 28.756 8.95935 28.939 8.86415 29.021Z" fill="white"/>
<path d="M9.61928 30.1159C9.50186 30.1979 9.30193 30.1159 9.19086 29.9518C9.16015 29.9224 9.13573 29.8871 9.11905 29.848C9.10236 29.809 9.09375 29.767 9.09375 29.7246C9.09375 29.6822 9.10236 29.6402 9.11905 29.6012C9.13573 29.5622 9.16015 29.5269 9.19086 29.4974C9.30828 29.4186 9.50821 29.4974 9.61928 29.6584C9.73034 29.8193 9.73352 30.0338 9.61928 30.1159Z" fill="white"/>
<path d="M10.6443 31.1761C10.5395 31.2929 10.3269 31.2613 10.1524 31.1035C9.97786 30.9458 9.9366 30.7312 10.0413 30.6176C10.146 30.504 10.3587 30.5356 10.5395 30.6902C10.7204 30.8448 10.7553 31.0625 10.6443 31.1761Z" fill="white"/>
<path d="M12.0819 31.7945C12.0343 31.9428 11.8185 32.009 11.6028 31.9459C11.387 31.8828 11.2442 31.7061 11.2854 31.5547C11.3267 31.4032 11.5456 31.3338 11.7646 31.4032C11.9836 31.4726 12.1232 31.6399 12.0819 31.7945Z" fill="white"/>
<path d="M13.6495 31.9018C13.6495 32.0564 13.4718 32.1889 13.2433 32.192C13.0149 32.1952 12.8276 32.069 12.8276 31.9144C12.8276 31.7598 13.0053 31.6272 13.2338 31.6241C13.4623 31.6209 13.6495 31.744 13.6495 31.9018Z" fill="white"/>
<path d="M15.1093 31.6589C15.1379 31.8135 14.9792 31.9744 14.7507 32.0123C14.5222 32.0501 14.3223 31.9586 14.2937 31.8072C14.2652 31.6557 14.4302 31.4916 14.6523 31.4506C14.8745 31.4096 15.0807 31.5043 15.1093 31.6589Z" fill="white"/>
</svg>
