<svg width="56" height="56" viewBox="0 0 56 56" fill="none" xmlns="http://www.w3.org/2000/svg">
<path d="M28.0044 14.2282C32.4934 14.2282 33.0204 14.2482 34.7946 14.3283C36.4355 14.4016 37.3226 14.6751 37.9163 14.9086C38.7034 15.2154 39.2637 15.5756 39.8507 16.1626C40.4376 16.7496 40.8045 17.3099 41.1047 18.0969C41.3314 18.6906 41.6116 19.5777 41.685 21.2186C41.765 22.9929 41.785 23.5198 41.785 28.0088C41.785 32.4979 41.765 33.0248 41.685 34.7991C41.6116 36.44 41.3381 37.3271 41.1047 37.9208C40.7978 38.7078 40.4376 39.2681 39.8507 39.8551C39.2637 40.4421 38.7034 40.8089 37.9163 41.1091C37.3226 41.3359 36.4355 41.616 34.7946 41.6894C33.0204 41.7695 32.4934 41.7895 28.0044 41.7895C23.5153 41.7895 22.9884 41.7695 21.2141 41.6894C19.5732 41.616 18.6861 41.3426 18.0925 41.1091C17.3054 40.8023 16.7451 40.4421 16.1581 39.8551C15.5711 39.2681 15.2043 38.7078 14.9041 37.9208C14.6773 37.3271 14.3972 36.44 14.3238 34.7991C14.2438 33.0248 14.2237 32.4979 14.2237 28.0088C14.2237 23.5198 14.2438 22.9929 14.3238 21.2186C14.3972 19.5777 14.6707 18.6906 14.9041 18.0969C15.2109 17.3099 15.5711 16.7496 16.1581 16.1626C16.7451 15.5756 17.3054 15.2087 18.0925 14.9086C18.6861 14.6818 19.5732 14.4016 21.2141 14.3283C22.9884 14.2416 23.522 14.2282 28.0044 14.2282ZM28.0044 11.2C23.442 11.2 22.8683 11.22 21.074 11.3C19.2864 11.38 18.0658 11.6669 16.9986 12.0804C15.8913 12.5073 14.9575 13.0876 14.0236 14.0214C13.0898 14.9553 12.5162 15.8958 12.0826 16.9964C11.6691 18.0636 11.3822 19.2842 11.3022 21.0785C11.2222 22.8661 11.2021 23.4398 11.2021 28.0022C11.2021 32.5646 11.2222 33.1382 11.3022 34.9325C11.3822 36.7201 11.6691 37.9408 12.0826 39.0147C12.5095 40.1219 13.0898 41.0557 14.0236 41.9896C14.9575 42.9234 15.898 43.497 16.9986 43.9306C18.0658 44.3442 19.2864 44.631 21.0807 44.711C22.875 44.7911 23.442 44.8111 28.0111 44.8111C32.5801 44.8111 33.1471 44.7911 34.9414 44.711C36.729 44.631 37.9496 44.3442 39.0236 43.9306C40.1308 43.5037 41.0646 42.9234 41.9985 41.9896C42.9323 41.0557 43.5059 40.1152 43.9395 39.0147C44.353 37.9474 44.6399 36.7268 44.7199 34.9325C44.7999 33.1382 44.82 32.5713 44.82 28.0022C44.82 23.4331 44.7999 22.8661 44.7199 21.0718C44.6399 19.2842 44.353 18.0636 43.9395 16.9897C43.5126 15.8824 42.9323 14.9486 41.9985 14.0148C41.0646 13.0809 40.1241 12.5073 39.0236 12.0737C37.9563 11.6602 36.7357 11.3734 34.9414 11.2933C33.1404 11.22 32.5668 11.2 28.0044 11.2Z" fill="white"/>
<path d="M28.0043 19.3777C23.2418 19.3777 19.373 23.2397 19.373 28.0089C19.373 32.7781 23.2351 36.6401 28.0043 36.6401C32.7735 36.6401 36.6355 32.7781 36.6355 28.0089C36.6355 23.2397 32.7735 19.3777 28.0043 19.3777ZM28.0043 33.6052C24.9093 33.6052 22.4013 31.0972 22.4013 28.0022C22.4013 24.9073 24.9093 22.3993 28.0043 22.3993C31.0993 22.3993 33.6072 24.9073 33.6072 28.0022C33.6072 31.0972 31.0993 33.6052 28.0043 33.6052Z" fill="white"/>
<path d="M36.9758 21.0452C38.0883 21.0452 38.9902 20.1433 38.9902 19.0308C38.9902 17.9182 38.0883 17.0164 36.9758 17.0164C35.8633 17.0164 34.9614 17.9182 34.9614 19.0308C34.9614 20.1433 35.8633 21.0452 36.9758 21.0452Z" fill="white"/>
</svg>
