<svg width="56" height="56" viewBox="0 0 56 56" fill="none" xmlns="http://www.w3.org/2000/svg">
<path d="M41.1265 12.6H14.8737C14.2707 12.6 13.6924 12.8395 13.266 13.2659C12.8396 13.6923 12.6001 14.2706 12.6001 14.8736V41.1263C12.6001 41.7293 12.8396 42.3077 13.266 42.734C13.6924 43.1604 14.2707 43.4 14.8737 43.4H41.1265C41.7295 43.4 42.3078 43.1604 42.7342 42.734C43.1606 42.3077 43.4001 41.7293 43.4001 41.1263V14.8736C43.4001 14.2706 43.1606 13.6923 42.7342 13.2659C42.3078 12.8395 41.7295 12.6 41.1265 12.6ZM21.7802 38.8377H17.1495V24.1286H21.7802V38.8377ZM19.4617 22.0902C18.9364 22.0873 18.4238 21.9288 17.9885 21.6348C17.5532 21.3407 17.2148 20.9244 17.0159 20.4382C16.817 19.952 16.7666 19.4178 16.8711 18.903C16.9755 18.3882 17.2301 17.9159 17.6027 17.5457C17.9754 17.1754 18.4493 16.9239 18.9647 16.8227C19.4802 16.7216 20.0141 16.7754 20.499 16.9774C20.9838 17.1794 21.398 17.5205 21.6893 17.9577C21.9805 18.3948 22.1357 18.9084 22.1353 19.4337C22.1402 19.7854 22.0743 20.1345 21.9415 20.4601C21.8087 20.7858 21.6116 21.0814 21.3621 21.3293C21.1127 21.5772 20.8158 21.7723 20.4893 21.9031C20.1628 22.0338 19.8133 22.0974 19.4617 22.0902ZM38.8485 38.8506H34.22V30.8148C34.22 28.4449 33.2126 27.7134 31.9121 27.7134C30.539 27.7134 29.1915 28.7486 29.1915 30.8746V38.8506H24.5608V24.1393H29.0139V26.1776H29.0738C29.5209 25.2729 31.0865 23.7265 33.4757 23.7265C36.0594 23.7265 38.8507 25.2601 38.8507 29.7517L38.8485 38.8506Z" fill="white"/>
</svg>
